<?xml version="1.0" encoding="UTF-8" standalone="no"?>
<!-- Created with Inkscape (http://www.inkscape.org/) -->

<svg
   width="100mm"
   height="100mm"
   viewBox="0 0 100 100"
   version="1.1"
   id="svg1"
   xmlns="http://www.w3.org/2000/svg"
   xmlns:svg="http://www.w3.org/2000/svg">
  <defs
     id="defs1" />
  <g
     id="layer1"
     transform="translate(8.4666667,-69.275014)">
    <path
       style="fill:#00d213;fill-opacity:1;stroke-width:0.247024"
       d="M 49.148489,79.731452 C 10.733766,50.431841 15.194832,107.06136 15.194832,107.06136 c 0,0 -39.805313,-43.588053 0,0 42.609826,46.65908 35.936356,85.43668 44.362816,38.902 8.426451,-46.534679 -4.461074,-37.42471 -4.461074,-37.42471 l -3.717548,3.2008 2.230527,31.02312 c -9.023533,-12.17232 -19.14677,-21.04551 -27.014221,-36.68608 -1.841322,-8.363694 -1.70995,-16.3986 0.247837,-24.129098 6.423475,-2.537394 6.044983,-1.746585 12.753912,-0.984862 7.940559,2.041688 6.937509,2.383048 9.551408,-1.231078 z"
       id="path3" />
    <path
       style="fill:#00d213;fill-opacity:1;stroke-width:0.257242"
       d="m 53.890138,120.74665 c 0,0 -5.677945,-41.793141 0,0 z"
       id="path4" />
    <path
       style="fill:#00d213;fill-opacity:1;stroke-width:2.065;stroke-dasharray:none"
       d="m 43.769996,171.1396 c 0,0 29.633333,-23.8125 0,0 z"
       id="path8" />
  </g>
</svg>
