<?xml version="1.0" encoding="UTF-8" standalone="no"?>
<!-- Created with Inkscape (http://www.inkscape.org/) -->

<svg
   width="204.78749mm"
   height="162.52805mm"
   viewBox="0 0 204.78749 162.52805"
   version="1.1"
   id="svg1"
   xmlns="http://www.w3.org/2000/svg"
   xmlns:svg="http://www.w3.org/2000/svg">
  <defs
     id="defs1" />
  <g
     id="layer1"
     transform="translate(8.4666667,-69.275014)">
    <path
       style="fill:#00d213;fill-opacity:1;stroke-width:0.257242"
       d="M 39.662833,106.04327 C -0.34086807,75.531717 4.3047234,134.50364 4.3047234,134.50364 c 0,0 -41.4518094,-45.391013 0,0 44.3723286,48.58907 37.4228176,88.97066 46.1978226,40.51113 8.775003,-48.45952 -4.645591,-38.97273 -4.645591,-38.97273 l -3.871326,3.33319 2.322795,32.30635 c -9.39678,-12.67581 -19.938756,-21.91603 -28.131634,-38.20355 -1.917486,-8.70964 -1.78068,-17.0769 0.258088,-25.12716 6.689174,-2.64235 6.295027,-1.81883 13.281464,-1.0256 8.269007,2.12614 7.224466,2.48162 9.946491,-1.282 z"
       id="path3" />
    <path
       style="fill:#00d213;fill-opacity:1;stroke-width:0.257242"
       d="m 54.63196,143.99042 c 0,0 -5.677945,-41.79314 0,0 z"
       id="path4" />
    <path
       style="fill:#00d213;fill-opacity:1;stroke-width:0.257242"
       d="m 59.019466,131.93964 c -2.064711,35.12675 -4.645595,45.12633 18.32427,55.12592 22.969874,9.99958 8.775012,46.15193 18.066184,-5.6408 9.29118,-51.79272 4.387509,-51.02352 3.355156,-51.02352 -1.03236,0 -12.904423,0.5128 -12.904423,0.5128 l 2.838978,15.89678 -1.290448,27.17836 -7.742652,2.30759 -11.613977,-11.53798 1.290445,-28.20396 z"
       id="path5" />
    <path
       style="fill:#00d213;fill-opacity:1;stroke-width:0.257242"
       d="m 120.96067,129.37564 12.90443,3.5896 c 0,0 5.41985,4.61519 1.54853,14.61478 -3.87133,9.99957 -5.41986,5.89718 -5.41986,5.89718 l -5.93604,-6.92279 1.03236,-6.15359 -6.45221,0.7692 -2.3228,22.56317 c -0.58682,10.93275 0.94,33.70191 -2.58088,28.20396 -14.422811,-72.51565 -0.36828,-58.06725 7.22647,-62.56151 z"
       id="path6" />
    <path
       style="fill:#00d213;fill-opacity:1;stroke-width:0.257242"
       d="m 153.30825,191.93715 c -8.77613,30.33787 2.02084,-52.84472 0.42965,-52.04913 l -11.87206,-0.2564 c -2.20722,-4.27333 -2.4095,-8.54665 -1.80662,-12.81998 2.20256,0.0606 5.18432,7.5277 15.22722,4.1024 -0.41015,-8.81896 -4.13333,-19.84661 -0.77427,-26.15277 2.58088,-3.34472 5.16177,-2.00264 7.74265,-0.5128 l 3.87133,25.12717 c 7.39814,-1.99594 17.09964,-7.72393 16.5501,-0.56756 -0.67827,11.54047 0.93234,11.78889 -2.87141,12.61834 l -13.42061,-1.28199"
       id="path7" />
    <path
       style="fill:#00d213;fill-opacity:1;stroke-width:2.065;stroke-dasharray:none"
       d="m 44.511818,194.38337 c 0,0 29.633333,-23.8125 0,0 z"
       id="path8" />
  </g>
</svg>
