<?xml version="1.0" encoding="UTF-8" standalone="no"?>
<!-- Created with Inkscape (http://www.inkscape.org/) -->

<svg
   width="204.78749mm"
   height="162.52805mm"
   viewBox="0 0 204.78749 162.52805"
   version="1.1"
   id="svg1"
   xmlns="http://www.w3.org/2000/svg"
   xmlns:svg="http://www.w3.org/2000/svg">
  <defs
     id="defs1" />
  <g
     id="layer1"
     transform="translate(8.4666667,-69.275014)">
    <path
       style="fill:#00d213;fill-opacity:1;stroke-width:0.257242"
       d="M 38.921011,82.799503 C -1.0826905,52.287948 3.562901,111.25987 3.562901,111.25987 c 0,0 -41.451809,-45.391012 0,0 44.372329,48.58907 37.422818,88.97066 46.197823,40.51113 8.775003,-48.45952 -4.645591,-38.97273 -4.645591,-38.97273 l -3.871326,3.33319 2.322795,32.30635 C 34.169822,135.762 23.627846,126.52178 15.434968,110.23426 c -1.917486,-8.70964 -1.78068,-17.076896 0.258088,-25.12716 6.689174,-2.642346 6.295027,-1.818825 13.281464,-1.0256 8.269007,2.126138 7.224466,2.481616 9.946491,-1.281997 z"
       id="path3" />
    <path
       style="fill:#00d213;fill-opacity:1;stroke-width:0.257242"
       d="m 53.890138,120.74665 c 0,0 -5.677945,-41.793141 0,0 z"
       id="path4" />
    <path
       style="fill:#00d213;fill-opacity:1;stroke-width:0.257242"
       d="m 58.277644,108.69587 c -2.064711,35.12675 -4.645595,45.12633 18.32427,55.12592 22.969874,9.99958 8.775012,46.15193 18.066184,-5.6408 9.291182,-51.79272 4.387509,-51.02352 3.355156,-51.02352 -1.03236,0 -12.904423,0.5128 -12.904423,0.5128 l 2.838978,15.89678 -1.290448,27.17836 -7.742652,2.30759 -11.613977,-11.53798 1.290445,-28.20396 z"
       id="path5" />
    <path
       style="fill:#00d213;fill-opacity:1;stroke-width:0.257242"
       d="m 120.21885,106.13187 12.90443,3.5896 c 0,0 5.41985,4.61519 1.54853,14.61478 -3.87133,9.99957 -5.41986,5.89718 -5.41986,5.89718 l -5.93604,-6.92279 1.03236,-6.15359 -6.45221,0.7692 -2.3228,22.56317 c -0.58682,10.93275 0.94,33.70191 -2.58088,28.20396 -14.422813,-72.515653 -0.36828,-58.06725 7.22647,-62.56151 z"
       id="path6" />
    <path
       style="fill:#00d213;fill-opacity:1;stroke-width:0.257242"
       d="m 152.56643,168.69338 c -8.77613,30.33787 2.02084,-52.84472 0.42965,-52.04913 l -11.87206,-0.2564 c -2.20722,-4.27333 -2.4095,-8.54665 -1.80662,-12.81998 2.20256,0.0606 5.18432,7.5277 15.22722,4.1024 -0.41015,-8.818964 -4.13333,-19.846612 -0.77427,-26.152765 2.58088,-3.344727 5.16177,-2.002644 7.74265,-0.5128 l 3.87133,25.127165 c 7.39814,-1.99594 17.09964,-7.723934 16.5501,-0.56756 -0.67827,11.54047 0.93234,11.78889 -2.87141,12.61834 l -13.42061,-1.28199"
       id="path7" />
    <path
       style="fill:#00d213;fill-opacity:1;stroke-width:2.065;stroke-dasharray:none"
       d="m 43.769996,171.1396 c 0,0 29.633333,-23.8125 0,0 z"
       id="path8" />
    <path
       style="fill:#00d213;fill-opacity:1;stroke-width:2.065;stroke-dasharray:none"
       d="m 30.399883,171.58221 c -25.1080349,33.83734 -11.241124,41.93849 -5.838143,44.80113 9.643692,3.42205 23.080229,9.22582 24.888143,1.76554 1.720451,-7.09937 9.543376,-16.26533 -13.758333,-10.31875 -35.15998361,8.9728 11.761816,-35.18959 9.260416,-35.18959 0,0 2.116667,-4.23333 -5.027083,-4.7625 -7.14375,-0.52916 -9.525,3.70417 -9.525,3.70417 z"
       id="path9" />
    <path
       d="m 83.578878,169.06272 c -6.91306,0.10168 -24.175134,27.82937 -17.012915,48.68333 0,0 -0.356051,2.64584 5.993949,1.85209 6.35,-0.79375 2.069641,-12.43542 2.863391,-23.54792 0.79375,-11.1125 11.391685,-4.15201 12.918075,-1.05833 1.231354,2.49571 3.044436,15.50904 3.704166,22.225 0.674513,6.86644 6.085412,2.11666 12.964586,0.52916 6.87917,-1.5875 -14.88653,-48.77963 -21.431252,-48.68333 z m -0.477491,4.16409 4.797124,8.72091 c 0,0 2.04742,6.33811 -2.71508,4.75062 -4.7625,-1.5875 -5.469434,-3.19257 -5.469434,-3.19257 0.79375,-10.05417 3.38739,-10.27896 3.38739,-10.27896 z"
       style="fill:#00d213;stroke-width:2.065"
       id="path15" />
    <path
       d="m 112.5616,164.73792 c 4.23333,48.15416 -6.08542,55.82708 9.525,55.03333 15.61041,-0.79375 34.925,-15.34583 22.225,-20.10833 -12.7,-4.7625 -31.48541,-2.11667 -20.10833,-5.55625 11.37709,-3.43959 32.27917,-6.08541 20.6375,-16.13958 -11.64166,-10.05416 -32.27917,-13.22917 -32.27917,-13.22917 z m 6.74171,5.99602 c 0.62651,0.002 1.60921,0.22169 3.04788,0.61856 7.67291,2.11667 17.4625,8.73125 17.4625,8.73125 0,0 4.49791,2.64584 -1.05834,4.23334 -5.55625,1.5875 -15.61041,2.11666 -15.61041,2.11666 -2.57969,-11.60859 -6.55651,-15.70653 -3.84163,-15.69981 z m 5.69371,30.2519 c 0,0 13.49375,-1e-5 13.49375,1.85208 0,1.85208 -8.99584,8.99583 -11.64167,8.99583 -2.64583,0 -3.43958,-0.26458 -3.43958,-0.26458 -0.52917,-9.525 1.5875,-10.58333 1.5875,-10.58333 z"
       style="fill:#00d213;stroke-width:2.065"
       id="path16" />
    <path
       style="fill:#00d213;fill-opacity:1;stroke-width:2.065"
       d="m 176.24712,174.36652 c -7.6655,-11.86915 -20.77103,-9.89096 -20.77103,-9.89096 0,0 -7.28665,3.59698 -6.42913,9.64369 0.69826,4.92369 6.82078,12.67084 14.3419,17.30919 7.7258,4.76458 12.61655,12.28424 4.45093,15.57827 -6.34792,2.56076 -5.67091,2.39078 -10.88006,4.45093 -5.16736,2.04362 -2.72001,5.44003 -2.72001,5.44003 1.52385,3.04771 19.80808,-0.44224 21.76012,-7.17094 1.8306,-6.31007 3.46184,-11.62189 1.23637,-13.35281 -2.22547,-1.73092 -10.5141,-6.0437 -13.60008,-8.16004 -6.57821,-4.51129 -8.34056,-11.34027 -4.94548,-14.83646 8.73675,-8.99693 11.3179,5.68566 15.08373,6.92368 3.91847,1.2882 2.92994,-5.28144 2.47274,-5.93458 z"
       id="path14" />
  </g>
</svg>
